#!OML:ASF I:\Actors\actors\Patient Classification 1\Patient 1\Session 1\Subject1.ASF
:FULLY-SPECIFIED
:DEGREES
235
root -0.497722 17.6071 7.76075 5.42399 8.04112 -8.51011
lowerback 2.54213 6.72117 7.02824
upperback -9.95549 9.58576 -1.99428
thorax -10.6532 3.97808 -7.03589
lowerneck -12.9318 -8.61751 -2.26148
upperneck 14.6318 -12.6987 7.7822
head 7.27606 -5.55208 1.55422
rclavicle 5.1684e-015 -4.77083e-015
rhumerus 65.7908 10.5871 -67.121
rradius 40.8995
rwrist 58.0763
rhand -24.6755 -47.2314
rfingers 7.12502
rthumb 1.82501 -77.2033
lclavicle 5.1684e-015 -4.77083e-015
lhumerus -41.6931 -9.27336 81.4834
lradius 94.0092
lwrist 25.8374
lhand -35.28 -27.3144
lfingers 7.12502
lthumb -8.41496 2.49796
rfemur 4.05722 22.5333 29.5
rtibia -0.12315
rfoot -16.7048 -28.7198
rtoes 9.70484
lfemur 2.0811 -33.1077 -10.387
ltibia -0.106077
lfoot -8.372 32.1215
ltoes -11.6011
236
root -0.483129 17.6092 7.75217 5.66762 7.41418 -8.48928
lowerback 2.96521 6.90541 7.08622
upperback -10.3376 9.89304 -2.07847
thorax -11.2794 4.06423 -7.28718
lowerneck -12.5186 -8.6107 -2.65039
upperneck 14.6315 -12.68 8.12628
head 7.25246 -5.54696 1.74134
rclavicle -4.25399e-014 2.38542e-014
rhumerus 65.4203 12.2546 -68.0973
rradius 39.7549
rwrist 58.7449
rhand -25.865 -46.0234
rfingers 7.12502
rthumb 0.676121 -76.0021
lclavicle -4.25399e-014 2.38542e-014
lhumerus -42.1743 -9.25872 81.2814
lradius 94.1735
lwrist 25.7038
lhand -35.1193 -27.7375
lfingers 7.12502
lthumb -8.25995 2.08103
rfemur 3.68639 22.7324 29.2518
rtibia -0.0418612
rfoot -16.4295 -28.2998
rtoes 9.37505
lfemur 2.08171 -33.07 -10.4816
ltibia -0.198551
lfoot -8.48474 32.7146
ltoes -11.2779
237
root -0.464325 17.6115 7.75281 5.56166 6.50295 -8.49293
lowerback 2.95827 7.20824 7.51328
upperback -10.0684 10.3002 -2.28891
thorax -10.7889 4.25471 -7.72974
lowerneck -12.7118 -8.62768 -2.63956
upperneck 14.2977 -12.7082 8.32968
head 7.19358 -5.54819 1.79729
rclavicle 3.95581e-014 1.11319e-014
rhumerus 65.343 13.8679 -68.1363
rradius 39.2063
rwrist 59.0962
rhand -26.1993 -45.7099
rfingers 7.12502
rthumb 0.353208 -75.6893
lclavicle 3.95581e-014 1.11319e-014
lhumerus -41.594 -9.20806 80.8632
lradius 94.2623
lwrist 25.3073
lhand -34.9569 -27.8435
lfingers 7.12502
lthumb -8.1032 1.98115
rfemur 3.78555 22.8325 29.1718
rtibia -0.0135543
rfoot -16.0556 -27.6028
rtoes 8.83741
lfemur 2.89317 -33.1726 -11.0171
ltibia -0.518922
lfoot -8.79835 33.6508
ltoes -10.429
238
root -0.458749 17.6018 7.73168 5.84728 6.09656 -8.4946
lowerback 2.85334 7.33816 7.74702
upperback -9.95798 10.459 -2.511
thorax -10.4913 4.32694 -8.06729
lowerneck -12.9725 -8.60148 -2.42668
upperneck 13.8833 -12.6766 8.36833
head 7.09231 -5.52584 1.77615
rclavicle -2.76311e-014 7.95139e-015
rhumerus 64.8326 15.6001 -67.8687
rradius 39.1567
rwrist 58.861
rhand -26.4213 -45.6763
rfingers 7.12502
rthumb 0.138792 -75.656
lclavicle -2.76311e-014 7.95139e-015
lhumerus -41.0539 -8.99619 80.4587
lradius 94.3858
lwrist 24.7691
lhand -34.8314 -27.8821
lfingers 7.12502
lthumb -7.98203 1.94723
rfemur 3.33567 23.0274 28.9511
rtibia 0.066497
rfoot -15.8548 -27.3831
rtoes 8.6063
lfemur 2.559 -32.945 -10.8382
ltibia -0.493287
lfoot -9.03628 33.8168
ltoes -9.70656
239
root -0.44206 17.5988 7.73605 5.72384 5.17894 -8.53592
lowerback 2.99897 7.61117 7.8622
upperback -9.83034 10.8313 -2.61371
thorax -10.3238 4.50944 -8.26408
lowerneck -13.146 -8.53169 -2.14748
upperneck 13.6392 -12.6141 8.39496
head 7.02465 -5.48275 1.74598
rclavicle 1.78906e-015 -6.36111e-015
rhumerus 63.6313 17.4352 -67.5359
rradius 39.3922
rwrist 58.6065
rhand -26.5391 -45.9005
rfingers 7.12502
rthumb 0.0250278 -75.8802
lclavicle 1.78906e-015 -6.36111e-015
lhumerus -40.9987 -8.57899 80.1944
lradius 94.6462
lwrist 24.2942
lhand -34.8016 -27.9382
lfingers 7.12502
lthumb -7.9533 1.89216
rfemur 3.42201 22.8387 28.8612
rtibia 0.0967615
rfoot -15.3996 -26.4226
rtoes 7.47953
lfemur 3.56899 -33.399 -11.4582
ltibia -0.93419
lfoot -9.53043 35.0916
ltoes -8.42768
240
root -0.436396 17.5893 7.72306 5.96807 4.81496 -8.49848
lowerback 3.0022 7.74783 7.58846
upperback -9.88138 10.9875 -2.69451
thorax -10.3836 4.60052 -8.22032
lowerneck -13.1301 -8.49316 -1.99898
upperneck 13.1609 -12.5312 8.34011
head 6.8498 -5.45966 1.72411
rclavicle 2.18663e-014 -2.06736e-014
rhumerus 61.9507 19.0609 -67.0766
rradius 39.801
rwrist 58.4851
rhand -26.727 -46.3514
rfingers 7.12502
rthumb -0.156373 -76.3311
lclavicle 2.18663e-014 -2.06736e-014
lhumerus -41.1586 -8.06783 80.0816
lradius 95.0017
lwrist 23.9604
lhand -34.5937 -28.0113
lfingers 7.12502
lthumb -7.7526 1.82659
rfemur 2.97722 22.7278 28.5789
rtibia 0.261932
rfoot -15.2467 -25.9333
rtoes 6.90952
lfemur 3.51416 -33.6152 -11.5188
ltibia -1.05458
lfoot -9.71813 35.6671
ltoes -8.0536
241
root -0.427969 17.5843 7.71849 6.07076 4.60871 -8.39984
lowerback 3.0014 7.82464 7.0843
upperback -9.8984 11.0479 -2.68075
thorax -10.4778 4.66709 -7.94634
lowerneck -13.0018 -8.45087 -1.95922
upperneck 12.6845 -12.4427 8.40382
head 6.67202 -5.43254 1.76094
rclavicle -3.79679e-014 -1.43125e-014
rhumerus 59.8964 20.4687 -66.5634
rradius 40.3565
rwrist 58.5574
rhand -27.0337 -46.7907
rfingers 7.12502
rthumb -0.452658 -76.7699
lclavicle -3.79679e-014 -1.43125e-014
lhumerus -41.5904 -7.46381 80.0478
lradius 95.4348
lwrist 23.6979
lhand -34.4888 -28.1298
lfingers 7.12502
lthumb -7.65135 1.71183
rfemur 2.77612 22.604 28.2974
rtibia 0.348919
rfoot -15.2431 -25.5201
rtoes 7.13033
lfemur 3.7374 -34.1792 -11.8435
ltibia -1.27068
lfoot -9.75218 36.4187
ltoes -7.7108
242
root -0.414917 17.5815 7.72425 6.10517 4.56222 -8.3346
lowerback 2.76321 7.81144 6.49687
upperback -9.80419 10.9659 -2.53738
thorax -10.3674 4.69589 -7.42792
lowerneck -12.9459 -8.49371 -2.39766
upperneck 12.1731 -12.46 8.96636
head 6.56671 -5.43636 2.01076
rclavicle -6.32135e-014 -7.95139e-015
rhumerus 57.8671 21.734 -65.6601
rradius 41.0399
rwrist 58.4042
rhand -27.1066 -47.7769
rfingers 7.12502
rthumb -0.523074 -77.756
lclavicle -6.32135e-014 -7.95139e-015
lhumerus -42.1207 -6.59492 80.0048
lradius 95.9233
lwrist 23.4012
lhand -34.4852 -28.2352
lfingers 7.12502
lthumb -7.64786 1.60652
rfemur 2.73371 22.3689 28.0774
rtibia 0.333962
rfoot -15.2992 -25.148
rtoes 7.54238
lfemur 4.18081 -35.1103 -12.2884
ltibia -1.61157
lfoot -9.74307 37.3678
ltoes -7.33735
243
root -0.401655 17.5797 7.732 6.1289 4.75867 -8.37781
lowerback 3.0738 7.67147 5.69176
upperback -10.1738 10.7792 -2.22479
thorax -11.2084 4.62402 -6.76882
lowerneck -12.46 -8.40176 -2.6967
upperneck 12.1519 -12.2833 8.99326
head 6.48594 -5.3802 2.10413
rclavicle 1.15295e-014 -2.70347e-014
rhumerus 54.7167 22.7849 -65.4861
rradius 41.7128
rwrist 58.2559
rhand -27.8357 -47.6642
rfingers 7.12502
rthumb -1.2272 -77.6404
lclavicle 1.15295e-014 -2.70347e-014
lhumerus -43.6609 -5.65819 79.9747
lradius 96.5552
lwrist 22.9736
lhand -34.1551 -28.0774
lfingers 7.12502
lthumb -7.32926 1.77565
rfemur 2.69892 22.0085 28.0074
rtibia 0.313373
rfoot -15.2619 -24.9796
rtoes 7.26648
lfemur 4.56982 -36.1645 -12.553
ltibia -1.98238
lfoot -9.75401 38.2074
ltoes -6.91777
244
root -0.392482 17.5785 7.73646 6.12634 5.29088 -8.52262
lowerback 2.44234 7.61131 5.41958
upperback -9.81107 10.614 -2.194
thorax -10.4837 4.62713 -6.42846
lowerneck -12.9054 -8.57226 -2.82428
upperneck 11.8096 -12.5093 9.32733
head 6.49862 -5.46547 2.18936
rclavicle 1.04561e-013 2.06736e-014
rhumerus 52.249 22.3906 -65.0813
rradius 42.5604
rwrist 58.0677
rhand -28.7876 -48.4312
rfingers 7.12502
rthumb -2.14659 -78.4001
lclavicle 1.04561e-013 2.06736e-014
lhumerus -43.6771 -5.11298 79.6499
lradius 96.883
lwrist 22.4276
lhand -33.8064 -27.8036
lfingers 7.12502
lthumb -6.99264 2.06094
rfemur 2.68651 21.6978 28.1324
rtibia 0.320524
rfoot -15.3053 -25.1687
rtoes 7.06817
lfemur 4.70742 -37.0101 -12.4773
ltibia -2.27564
lfoot -9.61711 38.5286
ltoes -6.71995
